<?xml version="1.0" encoding="UTF-8" standalone="no"?>
<!DOCTYPE svg PUBLIC "-//W3C//DTD SVG 1.1//EN" "http://www.w3.org/Graphics/SVG/1.1/DTD/svg11.dtd">
<svg width="444px" height="115px" version="1.1" xmlns="http://www.w3.org/2000/svg" xmlns:xlink="http://www.w3.org/1999/xlink" xml:space="preserve" xmlns:serif="http://www.serif.com/" style="fill-rule:evenodd;clip-rule:evenodd;stroke-linejoin:round;stroke-miterlimit:2;">
    <g transform="matrix(1,0,0,1,-7.72962,-1.13687e-13)">
        <g transform="matrix(0.42404,0,0,0.42404,-202.48,6.5479e-14)">
            <g transform="matrix(0.693648,0,0,0.693648,151.868,3.48282e-14)">
                <path d="M1205.12,113.406C1197.07,113.154 1190.53,119.441 1190.28,127.236L1190.28,199.655C1155.83,171.995 1105.29,177.527 1077.63,211.976C1066.31,226.309 1060.03,243.911 1060.03,262.267C1059.27,306.523 1094.48,342.984 1138.73,343.738C1182.99,344.493 1219.45,309.289 1220.2,265.033L1220.2,128.242C1220.2,124.218 1218.69,120.447 1215.93,117.681C1212.91,114.915 1209.14,113.406 1205.12,113.406M1186.26,281.629C1181.23,293.699 1171.67,303.254 1159.6,308.535C1147.03,313.815 1132.95,313.815 1120.38,308.535C1108.31,303.505 1099,293.699 1093.97,281.88C1088.69,269.559 1088.69,255.478 1093.97,242.905C1099,230.835 1108.56,221.28 1120.38,216.251C1132.95,210.97 1147.03,210.97 1159.6,216.251C1171.67,221.531 1181.23,231.087 1186.26,243.156C1191.54,255.226 1191.54,269.308 1186.26,281.629M1372.33,205.69C1341.15,174.509 1290.36,174.509 1259.18,205.69C1244.09,220.777 1235.79,241.145 1235.79,262.267C1235.04,306.523 1270.24,342.984 1314.5,343.738C1358.75,344.493 1395.21,309.289 1395.97,265.033L1395.97,262.267C1395.97,251.706 1393.96,241.396 1389.93,231.59C1385.91,221.783 1379.88,212.982 1372.33,205.69M1362.02,281.378C1359.51,287.412 1355.74,292.693 1351.21,297.219C1346.68,301.745 1341.15,305.517 1335.37,308.032C1322.8,313.312 1308.71,313.312 1296.14,308.032C1284.07,303.003 1274.52,293.196 1269.49,281.378C1264.21,269.056 1264.21,254.975 1269.49,242.402C1274.52,230.332 1284.07,221.028 1296.14,215.748C1308.71,210.467 1322.8,210.467 1335.37,215.748C1341.4,218.262 1346.68,222.034 1351.21,226.56C1355.74,231.087 1359.51,236.619 1362.02,242.402C1367.3,255.226 1367.3,269.308 1362.02,281.378M1703.5,196.889C1703.5,194.877 1703,192.866 1702.24,191.105C1701.49,189.345 1700.23,187.836 1698.97,186.328C1697.72,185.07 1695.95,183.813 1694.19,183.059C1692.43,182.304 1690.42,181.802 1688.41,181.802C1685.64,181.802 1682.88,182.556 1680.36,184.065L1594.87,239.636L1594.87,128.493C1594.87,124.47 1593.36,120.698 1590.6,117.932C1587.83,115.166 1584.06,113.406 1580.03,113.406C1571.74,113.406 1565.2,119.944 1564.95,128.242L1564.95,327.142C1564.95,331.165 1566.45,334.937 1569.22,337.703C1571.99,340.721 1575.76,342.229 1579.78,342.229C1583.81,342.229 1587.58,340.721 1590.34,337.703C1593.11,334.937 1594.87,331.165 1594.62,327.142L1594.62,275.594L1611.97,264.279L1678.1,338.458C1680.87,340.972 1684.39,342.481 1688.16,342.229C1690.17,342.229 1692.18,341.978 1693.94,340.972C1695.7,340.218 1697.21,339.212 1698.72,337.703C1699.98,336.195 1701.24,334.686 1701.99,332.926C1702.74,331.165 1703.25,329.154 1703.25,327.142C1703.25,323.37 1701.74,319.599 1699.22,316.833L1637.87,247.683L1697.72,208.707C1701.74,206.193 1703.75,201.666 1703.5,196.889M1455.31,226.56C1459.84,222.034 1465.37,218.262 1471.41,215.748C1477.69,213.233 1484.23,211.725 1491.02,211.725C1497.05,211.725 1502.84,212.73 1508.37,214.742C1513.9,217.005 1519.18,220.023 1523.71,224.046C1526.47,226.309 1530,227.315 1533.52,227.315C1537.54,227.566 1541.56,226.058 1544.33,223.04C1547.09,220.274 1548.6,216.251 1548.6,212.228C1548.6,207.953 1546.84,203.678 1543.32,200.912C1528.99,188.088 1510.38,181.047 1491.02,181.55C1446.76,181.55 1410.81,217.508 1410.81,261.764C1410.81,306.02 1446.51,341.727 1490.52,341.978C1509.88,341.978 1528.49,335.189 1543.07,322.616C1546.09,319.85 1547.85,315.827 1547.85,311.552C1548.1,303.505 1541.81,296.968 1534.02,296.716L1533.01,296.716C1529.49,296.716 1526.22,297.722 1523.46,299.734C1518.93,303.757 1513.9,306.774 1508.37,309.037C1502.84,311.049 1496.8,312.055 1491.02,312.055C1484.23,312.055 1477.69,310.798 1471.41,308.032C1465.37,305.517 1460.09,301.745 1455.31,297.219C1435.7,277.606 1435.7,245.922 1455.06,226.309C1455.31,226.812 1455.31,226.812 1455.31,226.56M2000.47,192.111C1997.45,189.345 1994.18,187.334 1990.41,186.076C1986.13,184.568 1981.61,183.562 1977.08,183.059C1972.55,182.556 1968.03,182.304 1963.5,182.304C1954.45,182.304 1945.15,183.813 1936.6,187.082C1928.05,190.1 1920.25,194.626 1913.21,200.158L1913.21,197.14C1912.96,188.842 1905.92,182.556 1897.62,182.807C1889.86,183.066 1883.55,189.378 1883.29,197.14L1883.29,327.645C1883.54,335.943 1890.58,342.229 1898.88,341.978C1906.64,341.719 1912.95,335.407 1913.21,327.645L1913.21,262.518C1913.21,255.729 1914.47,249.191 1917.23,242.905C1919.75,236.87 1923.27,231.59 1928.05,227.063C1932.57,222.537 1938.11,218.765 1943.89,216.251C1950.17,213.736 1956.71,212.228 1963.5,212.228C1970.29,212.228 1976.83,213.485 1983.12,215.748C1985.13,216.754 1987.14,217.257 1989.4,217.257C1991.41,217.257 1993.42,217.005 1995.18,215.999C1996.94,215.245 1998.45,214.239 1999.96,212.73C2001.22,211.473 2002.48,209.713 2003.23,207.953C2003.99,206.193 2004.49,204.181 2004.49,202.169C2004.74,198.398 2003.23,194.877 2000.47,192.111M1861.66,231.59C1848.84,201.918 1819.67,182.556 1787.48,182.304C1743.23,182.304 1707.52,218.011 1707.27,262.267C1707.27,306.523 1743.23,342.481 1787.48,342.481C1806.59,342.481 1825.2,335.692 1839.79,323.119L1840.29,322.616C1841.55,321.61 1842.8,320.353 1843.56,318.844C1848.34,311.803 1846.58,302.5 1839.79,297.722C1834,293.95 1826.46,294.705 1821.43,299.482C1820.93,299.985 1819.42,301.242 1819.42,301.494L1819.17,301.745C1814.89,305.266 1810.12,308.283 1804.83,310.043C1799.3,312.055 1793.52,313.061 1787.48,312.809C1781.95,312.809 1776.67,312.055 1771.39,310.295C1766.36,308.535 1761.58,306.271 1757.31,303.003C1753.04,299.985 1749.26,296.213 1746.25,291.939C1742.98,287.664 1740.71,282.635 1739.2,277.606L1852.36,277.606C1856.38,277.606 1860.15,276.097 1862.92,273.331C1865.94,270.565 1867.45,266.793 1867.19,262.77C1867.45,251.957 1865.43,241.396 1861.66,231.59M1739.2,247.683C1740.71,242.402 1742.98,237.624 1746.25,233.35C1749.26,229.075 1753.04,225.303 1757.31,222.286C1761.58,219.268 1766.36,216.754 1771.39,214.994C1776.42,213.233 1781.95,212.479 1787.23,212.479C1792.51,212.479 1798.05,213.233 1803.07,214.994C1813.13,218.262 1821.93,224.8 1828.22,233.35C1831.49,237.624 1833.75,242.654 1835.51,247.683L1739.2,247.683ZM1949.42,320.604C1943.64,320.604 1939.11,325.382 1939.11,331.165C1939.11,336.949 1943.89,341.475 1949.67,341.475C1955.45,341.475 1959.98,336.697 1959.98,331.165C1959.98,325.131 1955.2,320.604 1949.42,320.604ZM1949.42,339.212C1944.89,339.463 1941.12,335.943 1940.87,331.417C1940.62,326.891 1944.14,323.119 1948.67,322.867C1953.19,322.616 1956.96,326.136 1957.22,330.663L1957.22,331.165C1957.47,335.44 1953.95,339.212 1949.67,339.212L1949.42,339.212Z" style="fill:rgb(0,145,226);fill-rule:nonzero;"/>
            </g>
        </g>
        <g transform="matrix(0.42404,0,0,0.42404,-202.48,6.5479e-14)">
            <g transform="matrix(0.693648,0,0,0.693648,151.868,3.48282e-14)">
                <path d="M1951.93,331.165C1953.19,330.914 1953.95,329.908 1953.95,328.651C1953.95,327.645 1953.69,326.891 1952.94,326.388C1951.93,325.885 1950.68,325.633 1949.42,325.633C1948.16,325.633 1946.65,325.633 1945.4,325.885L1945.4,336.195L1947.66,336.195L1947.66,332.171L1948.67,332.171C1949.92,332.171 1950.68,332.674 1950.93,333.68C1951.18,334.434 1951.43,335.44 1951.68,336.195L1954.2,336.195C1953.69,335.44 1953.44,334.434 1953.44,333.68C1953.69,332.674 1952.94,331.668 1951.93,331.165M1948.92,330.411L1947.66,330.411L1947.66,327.394L1948.92,327.394C1950.43,327.394 1951.18,328.148 1951.18,328.902C1951.43,329.908 1950.17,330.663 1948.92,330.411M1032.62,147.101C1031.11,145.844 1017.53,135.534 988.362,135.534C980.818,135.534 973.023,136.288 965.479,137.546C959.947,99.073 928.013,80.465 926.755,79.46L918.96,74.933L913.931,82.226C907.645,92.032 902.867,103.096 900.101,114.412C894.821,136.288 898.09,156.908 909.154,174.509C895.826,182.053 874.201,183.813 869.675,184.065L512.61,184.065C503.306,184.065 495.762,191.608 495.762,200.912C495.26,232.092 500.54,263.273 511.353,292.693C523.674,324.879 542.03,348.767 565.667,363.352C592.321,379.696 635.823,389 684.856,389C706.984,389 729.112,386.988 750.989,382.965C781.415,377.433 810.583,366.872 837.489,351.533C859.617,338.709 879.482,322.365 896.329,303.254C924.744,271.319 941.591,235.613 953.912,203.93L958.941,203.93C989.87,203.93 1008.98,191.608 1019.54,181.047C1026.58,174.509 1031.86,166.463 1035.63,157.41L1037.9,150.873L1032.62,147.101Z" style="fill:rgb(0,145,226);fill-rule:nonzero;"/>
            </g>
        </g>
        <g transform="matrix(0.42404,0,0,0.42404,-202.48,6.5479e-14)">
            <g transform="matrix(0.693648,0,0,0.693648,151.868,3.48282e-14)">
                <path d="M545.802,173.755L593.578,173.755C595.841,173.755 597.853,171.995 597.853,169.48L597.853,126.733C597.853,124.47 596.093,122.458 593.578,122.458L545.802,122.458C543.539,122.458 541.527,124.218 541.527,126.733L541.527,169.48C541.779,171.995 543.539,173.755 545.802,173.755ZM611.683,173.755L659.459,173.755C661.722,173.755 663.734,171.995 663.734,169.48L663.734,126.733C663.734,124.47 661.974,122.458 659.459,122.458L611.683,122.458C609.42,122.458 607.408,124.218 607.408,126.733L607.408,169.48C607.66,171.995 609.42,173.755 611.683,173.755M678.821,173.755L726.598,173.755C728.861,173.755 730.872,171.995 730.872,169.48L730.872,126.733C730.872,124.47 729.112,122.458 726.598,122.458L678.821,122.458C676.558,122.458 674.547,124.218 674.547,126.733L674.547,169.48C674.547,171.995 676.307,173.755 678.821,173.755ZM744.954,173.755L792.73,173.755C794.993,173.755 797.005,171.995 797.005,169.48L797.005,126.733C797.005,124.47 795.245,122.458 792.73,122.458L744.954,122.458C742.691,122.458 740.679,124.218 740.679,126.733L740.679,169.48C740.679,171.995 742.691,173.755 744.954,173.755ZM611.683,112.652L659.459,112.652C661.722,112.652 663.734,110.64 663.734,108.377L663.734,65.63C663.734,63.367 661.974,61.355 659.459,61.355L611.683,61.355C609.42,61.355 607.408,63.115 607.408,65.63L607.408,108.377C607.66,110.64 609.42,112.652 611.683,112.652M678.821,112.652L726.598,112.652C728.861,112.652 730.872,110.64 730.872,108.377L730.872,65.63C730.872,63.367 729.112,61.355 726.598,61.355L678.821,61.355C676.558,61.355 674.547,63.115 674.547,65.63L674.547,108.377C674.547,110.64 676.307,112.652 678.821,112.652M744.954,112.652L792.73,112.652C794.993,112.652 797.005,110.64 797.005,108.377L797.005,65.63C797.005,63.367 794.993,61.355 792.73,61.355L744.954,61.355C742.691,61.355 740.679,63.115 740.679,65.63L740.679,108.377C740.679,110.64 742.691,112.652 744.954,112.652M744.954,51.297L792.73,51.297C794.993,51.297 797.005,49.537 797.005,47.022L797.005,4.275C797.005,2.012 794.993,0 792.73,0L744.954,0C742.691,0 740.679,1.76 740.679,4.275L740.679,47.022C740.679,49.285 742.691,51.297 744.954,51.297M811.589,173.755L859.366,173.755C861.629,173.755 863.64,171.995 863.64,169.48L863.64,126.733C863.64,124.47 861.88,122.458 859.366,122.458L811.589,122.458C809.326,122.458 807.314,124.218 807.314,126.733L807.314,169.48C807.566,171.995 809.326,173.755 811.589,173.755" style="fill:rgb(0,145,226);fill-rule:nonzero;"/>
            </g>
        </g>
    </g>
</svg>
