<?xml version="1.0" encoding="UTF-8" standalone="no"?>
<!DOCTYPE svg PUBLIC "-//W3C//DTD SVG 1.1//EN" "http://www.w3.org/Graphics/SVG/1.1/DTD/svg11.dtd">
<svg width="154px" height="150px" version="1.1" xmlns="http://www.w3.org/2000/svg" xmlns:xlink="http://www.w3.org/1999/xlink" xml:space="preserve" xmlns:serif="http://www.serif.com/" style="fill-rule:evenodd;clip-rule:evenodd;">
    <g transform="matrix(1,0,0,1,-9.60523,-6.45596)">
        <g transform="matrix(1,0,0,1,-69.981,-160.333)">
            <g id="g3699" transform="matrix(0.406132,0,0,0.369446,47.2776,117.16)">
                <path id="path2836" d="M260.507,170.695L105.984,340.791L259.864,510.178L414.387,340.082L260.507,170.695Z" style="fill:rgb(1,152,51);fill-rule:nonzero;stroke:black;stroke-width:0.95px;"/>
                <path id="path2838" d="M259.864,171.404L259.864,156.521L91.819,341.5L105.984,341.5L259.864,171.404Z" style="fill:rgb(102,254,152);fill-rule:nonzero;stroke:black;stroke-width:0.95px;"/>
                <path id="path2840" d="M259.477,171.404L259.477,156.521L427.521,341.5L413.357,341.5L259.477,171.404Z" style="fill:rgb(69,254,2);fill-rule:nonzero;stroke:black;stroke-width:0.95px;"/>
                <path id="path2842" d="M259.864,511.17L259.864,526.054L91.819,341.074L105.984,341.074L259.864,511.17Z" style="fill:rgb(1,125,23);fill-rule:nonzero;stroke:black;stroke-width:0.95px;"/>
                <path id="path3650" d="M122.994,175.306L231.348,175.306L237.95,182.573L237.95,204.874L232.714,211.89L220.877,211.89L220.877,322.644L322.857,211.89L306.013,211.89L300.094,204.874L300.094,181.32L305.557,175.808L415.277,175.808L420.74,181.821L420.74,203.872L172.619,484.015L144.392,484.015L136.222,478.822L136.222,210.888L122.539,210.888L117.531,205.375L117.531,181.821L122.994,175.306Z" style="fill:none;fill-rule:nonzero;stroke:black;stroke-width:18.91px;"/>
                <path id="path2844" d="M259.477,511.17L259.477,526.054L427.521,341.074L413.357,341.074L259.477,511.17Z" style="fill:rgb(0,93,4);fill-rule:nonzero;stroke:black;stroke-width:0.95px;"/>
                <path id="path2846" d="M259.41,155.148L90.734,340.823L258.707,525.725L427.384,340.05L259.41,155.148Z" style="fill:none;fill-rule:nonzero;stroke:black;stroke-width:5.67px;"/>
                <path id="path3640" d="M232.5,186.642L238.617,183.098L232.339,176.188L123.046,176.188L117.493,182.301L117.493,205.423L123.65,212.2L126.587,205.423L122.724,201.171L122.724,184.87L125.621,182.035L229.925,182.035L232.5,186.642Z" style="fill:rgb(254,254,254);fill-rule:nonzero;stroke:black;stroke-width:0.95px;"/>
                <g id="path3632" transform="matrix(0.901386,0,0,0.992225,-437.423,-185.306)">
                    <path d="M828.938,369.5L824.656,373.781L824.656,389.5L828.406,393.25L848.219,393.25L848.219,408.438L717.156,541.281L717.156,393.438L738.938,393.438L743.406,388.969L743.406,373.063L739.281,369.875L624.656,369.875L620.906,373.625L620.906,389.875L624.719,393.688L644.656,393.688L644.656,665.938L648.406,669.688L671.063,669.688L945.719,386.281L945.719,373.781L941.438,369.5L828.938,369.5Z" style="fill:none;fill-rule:nonzero;stroke:black;stroke-width:1px;"/>
                </g>
                <path id="path3646" d="M143.482,204.874L143.482,475.495L146.668,479.504L144.169,484.747L137.108,476.998L137.108,211.89L143.482,204.874Z" style="fill:rgb(254,254,254);fill-rule:nonzero;stroke:black;stroke-width:0.95px;"/>
                <path id="path3644" d="M125.825,204.874L124.003,211.389L137.206,211.389L144.491,204.874L125.825,204.874Z" style="fill:rgb(128,128,128);fill-rule:nonzero;stroke:black;stroke-width:0.95px;"/>
                <path id="path3638" d="M307.186,212.191L310.084,205.636L305.899,201.383L305.899,186.854L310.728,181.539L411.49,181.539L415.353,187.209L420.825,182.956L415.192,176.755L306.864,176.755L301.472,182.69L301.472,205.99L307.066,211.793M219.523,323.671L209,351.776L327.789,220.661L327.789,205.069L219.523,323.671Z" style="fill:rgb(254,254,254);fill-rule:nonzero;stroke:black;stroke-width:0.95px;"/>
                <path id="path3642" d="M232.259,185.831L237.495,182.072L237.495,204.874L231.462,211.514L219.739,211.514L219.739,323.897L209.04,351.711L209.04,204.874L228.617,204.874L232.259,201.617L232.259,185.831Z" style="fill:rgb(128,128,128);fill-rule:nonzero;stroke:black;stroke-width:0.95px;"/>
                <g id="path3622" transform="matrix(0.901386,0,0,0.992225,-437.423,-185.306)">
                    <path d="M828.938,369.5L824.656,373.781L824.656,389.5L828.406,393.25L848.219,393.25L848.219,408.438L717.156,541.281L717.156,393.438L738.938,393.438L743.406,388.969L743.406,373.063L739.281,369.875L624.656,369.875L620.906,373.625L620.906,389.875L624.719,393.688L644.656,393.688L644.656,665.938L648.406,669.688L671.063,669.688L945.719,386.281L945.719,373.781L941.438,369.5L828.938,369.5Z" style="fill:rgb(204,204,204);fill-rule:nonzero;stroke:black;stroke-width:1px;"/>
                </g>
                <path id="path3636" d="M415.353,185.933L420.851,182.438L420.851,204.36L171.46,484.881L144.983,484.881L147.512,479.348L167.793,479.348L415.031,198.336L415.353,185.933Z" style="fill:rgb(128,128,128);fill-rule:nonzero;stroke:black;stroke-width:0.95px;"/>
                <path id="path3652" d="M327.296,205.25L321.719,211.64L307.151,211.64L310.565,205.25L327.296,205.25Z" style="fill:rgb(128,128,128);fill-rule:nonzero;stroke:black;stroke-width:0.95px;"/>
                <g id="g3673" transform="matrix(0.901386,0,0,0.992225,-92.5303,-192.238)">
                    <path id="path3671" d="M399.781,560C399.573,560.044 399.379,560.14 399.219,560.281L393.906,564.844C393.747,564.988 393.629,565.171 393.563,565.375L388.25,580.25C388.09,580.695 388.2,581.194 388.531,581.531L392.594,585.594C392.828,585.819 393.143,585.943 393.469,585.938L409.875,585.938C410.2,585.943 410.515,585.819 410.75,585.594L415.031,581.281C415.179,581.133 415.286,580.951 415.344,580.75L419.906,565.094C420.033,564.662 419.913,564.193 419.594,563.875L416.063,560.344C415.828,560.118 415.513,559.995 415.188,560L400.031,560C399.948,559.992 399.864,559.992 399.781,560ZM369.719,601.938C369.26,602.036 368.895,602.388 368.781,602.844L366.75,610.906C366.726,611.004 366.713,611.104 366.713,611.205C366.713,611.878 367.264,612.433 367.938,612.438L377.594,612.438L353.656,680.781C353.614,680.908 353.592,681.04 353.592,681.173C353.592,681.845 354.141,682.399 354.813,682.406L389.656,682.406C390.192,682.414 390.675,682.071 390.844,681.563L393.125,674.219C393.161,674.102 393.179,673.98 393.179,673.858C393.179,673.182 392.622,672.625 391.946,672.625C391.943,672.625 391.94,672.625 391.938,672.625L384.063,672.625L407.75,603.563C407.792,603.436 407.814,603.304 407.814,603.17C407.814,602.499 407.265,601.944 406.594,601.938L369.969,601.938C369.886,601.929 369.802,601.929 369.719,601.938ZM480.594,602.188C480.326,602.243 480.084,602.386 479.906,602.594L472.656,610.781L461.125,610.781L453.438,602.813C453.208,602.576 452.892,602.44 452.563,602.438L425.031,602.438C424.515,602.439 424.051,602.764 423.875,603.25L421.344,610.813C421.301,610.939 421.28,611.071 421.28,611.205C421.28,611.876 421.828,612.431 422.5,612.438L429.875,612.438L406.938,680.031C406.895,680.158 406.874,680.29 406.874,680.423C406.874,681.095 407.422,681.649 408.094,681.656L437.406,681.656C437.923,681.655 438.386,681.329 438.563,680.844L440.813,674.25C440.855,674.124 440.876,673.991 440.876,673.858C440.876,673.186 440.328,672.632 439.656,672.625L434.531,672.625L449.156,626.594L475.625,626.594L458.938,680.063C458.902,680.179 458.884,680.301 458.884,680.423C458.884,681.1 459.44,681.656 460.117,681.656C460.119,681.656 460.122,681.656 460.125,681.656L488.406,681.656C488.896,681.652 489.339,681.357 489.531,680.906L492.063,674.844C492.12,674.699 492.149,674.545 492.149,674.389C492.149,673.721 491.606,673.168 490.938,673.156L485.813,673.156L500.688,626.344L525.875,626.344L508.938,680.063C508.902,680.179 508.884,680.301 508.884,680.423C508.884,681.1 509.44,681.656 510.117,681.656C510.119,681.656 510.122,681.656 510.125,681.656L541.188,681.656C541.696,681.66 542.157,681.348 542.344,680.875L544.875,674.281C544.925,674.146 544.95,674.002 544.95,673.858C544.95,673.182 544.394,672.626 543.719,672.625L537.563,672.625L556.281,611.844C556.406,611.461 556.336,611.04 556.094,610.719L550.281,602.906C550.041,602.601 549.67,602.427 549.281,602.438L527.063,602.438C526.722,602.432 526.393,602.568 526.156,602.813L519.156,610.5L506.906,610.5L499.656,602.563C499.419,602.318 499.091,602.182 498.75,602.188L480.844,602.188C480.761,602.179 480.677,602.179 480.594,602.188Z" style="fill:rgb(204,204,204);fill-rule:nonzero;stroke:black;stroke-width:8px;stroke-miterlimit:10;"/>
                    <path id="path3665" d="M400.031,561.219L394.719,565.781L389.406,580.656L393.469,584.719L409.875,584.719L414.156,580.406L418.719,564.75L415.188,561.219L400.031,561.219ZM369.969,603.156L367.938,611.219L379.313,611.219L354.813,681.188L389.656,681.188L391.938,673.844L382.344,673.844L406.594,603.156L369.969,603.156ZM480.844,603.406L473.25,612L460.625,612L452.563,603.656L425.031,603.656L422.5,611.219L431.594,611.219L408.094,680.438L437.406,680.438L439.656,673.844L432.844,673.844L448.25,625.375L477.313,625.375L460.125,680.438L488.406,680.438L490.938,674.375L484.125,674.375L499.781,625.125L527.563,625.125L510.125,680.438L541.188,680.438L543.719,673.844L535.875,673.844L555.094,611.469L549.281,603.656L527.063,603.656L519.719,611.719L506.344,611.719L498.75,603.406L480.844,603.406Z" style="fill:rgb(204,204,204);fill-rule:nonzero;stroke:black;stroke-width:1px;stroke-miterlimit:10;"/>
                </g>
            </g>
        </g>
    </g>
</svg>
