<?xml version="1.0" encoding="utf-8"?>
<!-- Generator: Adobe Illustrator 18.1.0, SVG Export Plug-In . SVG Version: 6.00 Build 0)  -->
<!DOCTYPE svg PUBLIC "-//W3C//DTD SVG 1.0//EN" "http://www.w3.org/TR/2001/REC-SVG-20010904/DTD/svg10.dtd">
<svg version="1.0" xmlns="http://www.w3.org/2000/svg" xmlns:xlink="http://www.w3.org/1999/xlink" x="0px" y="0px"
	 viewBox="0 0 370.9 82.5" enable-background="new 0 0 370.9 82.5" xml:space="preserve">
<g id="Layer_2">
	<path fill="none" stroke="#000000" stroke-width="0.5" d="M84,63.1c0,4-3.3,7.3-7.3,7.3H7.5c-4,0-7.3-3.3-7.3-7.3V13.7
		c0-4,3.3-7.3,7.3-7.3h69.2c4,0,7.3,3.3,7.3,7.3V63.1z"/>
	<rect x="10.8" y="0" fill="#FFFFFF" width="27.6" height="12.9"/>
	<rect x="52.9" y="0" fill="#FFFFFF" width="20.9" height="12.9"/>
	<line fill="none" stroke="#000000" stroke-width="0.5" x1="0.3" y1="15.7" x2="84" y2="15.7"/>
	<line fill="none" stroke="#949494" stroke-width="0.5" stroke-dasharray="3" x1="23.1" y1="16" x2="23.1" y2="70.1"/>
	<path fill="none" stroke="#000000" stroke-width="0.5" d="M179,63.1c0,4-3.3,7.3-7.3,7.3h-69.2c-4,0-7.3-3.3-7.3-7.3V13.7
		c0-4,3.3-7.3,7.3-7.3h69.2c4,0,7.3,3.3,7.3,7.3V63.1z"/>
	<rect x="105.8" y="0" fill="#FFFFFF" width="27.6" height="12.9"/>
	<rect x="147.9" y="0" fill="#FFFFFF" width="20.9" height="12.9"/>
	<line fill="none" stroke="#000000" stroke-width="0.5" x1="95.2" y1="15.7" x2="179" y2="15.7"/>
	<line fill="none" stroke="#949494" stroke-width="0.5" stroke-dasharray="3" x1="118.1" y1="16" x2="118.1" y2="70.1"/>
	<path fill="none" stroke="#000000" stroke-width="0.5" d="M370.7,75c0,4-3.3,7.3-7.3,7.3h-69.2c-4,0-7.3-3.3-7.3-7.3V13.7
		c0-4,3.3-7.3,7.3-7.3h69.2c4,0,7.3,3.3,7.3,7.3V75z"/>
	<rect x="297.4" y="0" fill="#FFFFFF" width="32.5" height="12.9"/>
	<rect x="339.5" y="0" fill="#FFFFFF" width="20.9" height="12.9"/>
	<line fill="none" stroke="#000000" stroke-width="0.5" x1="286.9" y1="15.7" x2="370.7" y2="15.7"/>
	<line fill="none" stroke="#949494" stroke-width="0.5" stroke-dasharray="3" x1="309.7" y1="16" x2="309.7" y2="82.1"/>
	<path fill="none" stroke="#000000" stroke-width="0.5" d="M37,41.8c0,2.6-1.8,4.7-4,4.7H12.6c-2.2,0-4-2.1-4-4.7l0,0
		c0-2.6,1.8-4.7,4-4.7h20.5C35.2,37.2,37,39.3,37,41.8L37,41.8z"/>
	<path fill="none" stroke="#000000" stroke-width="0.5" d="M37,29.7c0,2.6-1.8,4.7-4,4.7H12.6c-2.2,0-4-2.1-4-4.7l0,0
		c0-2.6,1.8-4.7,4-4.7h20.5C35.2,25,37,27.1,37,29.7L37,29.7z"/>
	<path fill="none" stroke="#000000" stroke-width="0.5" d="M132.3,29.7c0,2.6-1.8,4.7-4,4.7h-20.5c-2.2,0-4-2.1-4-4.7l0,0
		c0-2.6,1.8-4.7,4-4.7h20.5C130.5,25,132.3,27.1,132.3,29.7L132.3,29.7z"/>
	<path fill="none" stroke="#000000" stroke-width="0.5" d="M37,53.9c0,2.6-1.8,4.7-4,4.7H12.6c-2.2,0-4-2.1-4-4.7l0,0
		c0-2.6,1.8-4.7,4-4.7h20.5C35.2,49.3,37,51.3,37,53.9L37,53.9z"/>
	<path fill="none" stroke="#000000" stroke-width="0.5" d="M132.2,41.8c0,2.6-1.8,4.7-4,4.7h-20.5c-2.2,0-4-2.1-4-4.7l0,0
		c0-2.6,1.8-4.7,4-4.7h20.5C130.4,37.2,132.2,39.3,132.2,41.8L132.2,41.8z"/>
	<path fill="none" stroke="#000000" stroke-width="0.5" d="M132.2,53.9c0,2.6-1.8,4.7-4,4.7h-20.5c-2.2,0-4-2.1-4-4.7l0,0
		c0-2.6,1.8-4.7,4-4.7h20.5C130.4,49.3,132.2,51.3,132.2,53.9L132.2,53.9z"/>
	<path fill="none" stroke="#000000" stroke-width="0.5" d="M274,42.6c0,4-3.3,7.3-7.3,7.3h-69.2c-4,0-7.3-3.3-7.3-7.3V13.7
		c0-4,3.3-7.3,7.3-7.3h69.2c4,0,7.3,3.3,7.3,7.3V42.6z"/>
	<rect x="200.8" y="0" fill="#FFFFFF" width="24.7" height="12.9"/>
	<rect x="246.8" y="0" fill="#FFFFFF" width="17" height="12.9"/>
	<line fill="none" stroke="#000000" stroke-width="0.5" x1="190.2" y1="15.7" x2="274" y2="15.7"/>
	<path fill="none" stroke="#000000" stroke-width="0.5" d="M219.4,29.7c0,2.6-1.8,4.7-4,4.7h-12.7c-2.2,0-4-2.1-4-4.7l0,0
		c0-2.6,1.8-4.7,4-4.7h12.7C217.6,25,219.4,27.1,219.4,29.7L219.4,29.7z"/>
	<path fill="none" stroke="#000000" stroke-width="0.5" d="M219.4,41.8c0,2.6-1.8,4.7-4,4.7h-12.7c-2.2,0-4-2.1-4-4.7l0,0
		c0-2.6,1.8-4.7,4-4.7h12.7C217.6,37.2,219.4,39.3,219.4,41.8L219.4,41.8z"/>
	<g>
		<g>
			<line fill="none" stroke="#202020" stroke-width="0.5" x1="37.1" y1="53.9" x2="103.8" y2="41.8"/>
		</g>
	</g>
	<g>
		<g>
			<polyline fill="none" stroke="#202020" stroke-width="0.5" points="36.2,28.8 66.6,28.8 66.6,20.7 184.5,20.7 184.4,29.7 
				193.7,29.7 			"/>
			<path fill="#202020" d="M194.9,29.2c-0.8-0.2-1.4-0.5-2-0.7v2.5c0.2-0.1,1.2-0.5,2-0.7c0.9-0.3,1.7-0.5,2.2-0.5
				C196.6,29.6,195.8,29.4,194.9,29.2z"/>
		</g>
	</g>
	<g>
		<g>
			<line fill="none" stroke="#202020" stroke-width="0.5" x1="37" y1="41.8" x2="103.7" y2="53.9"/>
		</g>
	</g>
	<g>
		<g>
			<line fill="none" stroke="#202020" stroke-width="0.5" x1="219.4" y1="41.8" x2="293.1" y2="31.9"/>
			<path fill="#202020" d="M294.2,31.3c-0.9-0.1-1.4-0.3-2.1-0.5l0.3,2.5c0.2-0.1,1.1-0.7,1.9-1c0.8-0.4,1.6-0.7,2.1-0.8
				C295.9,31.5,295.1,31.4,294.2,31.3z"/>
		</g>
	</g>
	<g>
		<g>
			<line fill="none" stroke="#202020" stroke-width="0.5" x1="219.4" y1="29.7" x2="293.1" y2="40.9"/>
			<path fill="#202020" d="M294.3,40.6c-0.8-0.4-1.3-0.7-1.9-1l-0.4,2.5c0.3-0.1,1.3-0.3,2.1-0.4c0.9-0.1,1.7-0.2,2.3-0.2
				C295.9,41.3,295.2,41,294.3,40.6z"/>
		</g>
	</g>
	<g>
		<g>
			<line fill="none" stroke="#202020" stroke-width="0.5" x1="132.3" y1="29.7" x2="198.8" y2="41.8"/>
		</g>
	</g>
	<g>
		<g>
			<polyline fill="none" stroke="#202020" stroke-width="0.5" points="132.2,41.8 160.4,41.8 160.2,53.4 294.5,53.4 			"/>
			<path fill="#202020" d="M295.7,52.9c-0.8-0.3-1.4-0.5-2-0.7v2.5c0.2-0.1,1.2-0.5,2-0.7c0.9-0.3,1.7-0.5,2.2-0.5
				C297.3,53.3,296.5,53.1,295.7,52.9z"/>
		</g>
	</g>
	<g>
		<g>
			<polyline fill="none" stroke="#202020" stroke-width="0.5" points="132.2,54 150.2,54 149.9,64.6 294.5,64.6 			"/>
			<path fill="#202020" d="M295.7,64.1c-0.8-0.3-1.4-0.5-2-0.7v2.5c0.2-0.1,1.2-0.5,2-0.7c0.9-0.3,1.7-0.5,2.2-0.5
				C297.3,64.5,296.5,64.3,295.7,64.1z"/>
		</g>
	</g>
</g>
<g id="Layer_3">
	<text transform="matrix(1 0 0 1 14.3462 32.541)" font-family="'ArialMT'" font-size="7.8195">a</text>
	<text transform="matrix(1 0 0 1 14.3462 44.6499)" font-family="'ArialMT'" font-size="7.8195">b</text>
	<text transform="matrix(1 0 0 1 14.3462 56.7588)" font-family="'ArialMT'" font-size="7.8195">c</text>
	<text transform="matrix(1 0 0 1 109.3203 32.541)" font-family="'ArialMT'" font-size="7.8195">d</text>
	<text transform="matrix(1 0 0 1 109.3203 44.6499)" font-family="'ArialMT'" font-size="7.8195">c</text>
	<text transform="matrix(1 0 0 1 109.3203 56.7588)" font-family="'ArialMT'" font-size="7.8195">b</text>
	<text transform="matrix(1 0 0 1 300.9492 32.541)" font-family="'ArialMT'" font-size="7.8195">d</text>
	<text transform="matrix(1 0 0 1 300.9492 44.6499)" font-family="'ArialMT'" font-size="7.8195">a</text>
	<text transform="matrix(1 0 0 1 300.9492 56.103)" font-family="'ArialMT'" font-size="7.8195">c</text>
	<text transform="matrix(1 0 0 1 300.9492 67.5566)" font-family="'ArialMT'" font-size="7.8195">b</text>
	<text transform="matrix(1 0 0 1 206.7715 32.541)" font-family="'ArialMT'" font-size="7.8195">a</text>
	<text transform="matrix(1 0 0 1 206.7715 44.6499)" font-family="'ArialMT'" font-size="7.8195">d</text>
</g>
<g id="Layer_3_copy_2">
	<text transform="matrix(1 0 0 1 27.5421 32.541)" font-family="'ArialMT'" font-size="7.8195">1</text>
	<text transform="matrix(1 0 0 1 27.5421 44.6499)" font-family="'ArialMT'" font-size="7.8195">2</text>
	<text transform="matrix(1 0 0 1 27.5426 56.7588)" font-family="'ArialMT'" font-size="7.8195">3</text>
	<text transform="matrix(1 0 0 1 122.5162 32.541)" font-family="'ArialMT'" font-size="7.8195">0</text>
	<text transform="matrix(1 0 0 1 122.5162 44.6499)" font-family="'ArialMT'" font-size="7.8195">1</text>
	<text transform="matrix(1 0 0 1 122.5162 56.7588)" font-family="'ArialMT'" font-size="7.8195">4</text>
	<text transform="matrix(1 0 0 1 313.8036 32.541)" font-family="'ArialMT'" font-size="7.8195">1</text>
	<text transform="matrix(1 0 0 1 313.8036 44.6499)" font-family="'ArialMT'" font-size="7.8195">2</text>
	<text transform="matrix(1 0 0 1 313.3642 56.103)" font-family="'ArialMT'" font-size="7.8195">4</text>
	<text transform="matrix(1 0 0 1 313.8036 67.5566)" font-family="'ArialMT'" font-size="7.8195">6  </text>
</g>
<g id="Layer_3_copy">
	<text transform="matrix(1 0 0 1 14.3462 8.4341)" font-family="'ArialMT'" font-size="7.8195">zset-1</text>
	<text transform="matrix(1 0 0 1 56.2896 8.4341)" font-family="'ArialMT'" font-size="7.8195">zset</text>
	<text transform="matrix(1 0 0 1 109.3203 8.4341)" font-family="'ArialMT'" font-size="7.8195">zset-2</text>
	<text transform="matrix(1 0 0 1 151.2637 8.4341)" font-family="'ArialMT'" font-size="7.8195">zset</text>
	<text transform="matrix(1 0 0 1 300.9492 8.4341)" font-family="'ArialMT'" font-size="7.8195">zset-u2</text>
	<text transform="matrix(1 0 0 1 342.8916 8.4341)" font-family="'ArialMT'" font-size="7.8195">zset</text>
	<text transform="matrix(1 0 0 1 204.294 8.4341)" font-family="'ArialMT'" font-size="7.8195">set-1</text>
	<text transform="matrix(1 0 0 1 250.1475 8.4341)" font-family="'ArialMT'" font-size="7.8195">set</text>
</g>
</svg>
