<?xml version="1.0" encoding="UTF-8" standalone="no"?>
<!DOCTYPE svg PUBLIC "-//W3C//DTD SVG 1.1//EN" "http://www.w3.org/Graphics/SVG/1.1/DTD/svg11.dtd">
<svg width="112px" height="121px" version="1.1" xmlns="http://www.w3.org/2000/svg" xmlns:xlink="http://www.w3.org/1999/xlink" xml:space="preserve" xmlns:serif="http://www.serif.com/" style="fill-rule:evenodd;clip-rule:evenodd;stroke-linejoin:round;stroke-miterlimit:2;">
    <g transform="matrix(1,0,0,1,-891.615,-467.019)">
        <g transform="matrix(0.613262,0,0,0.613262,408.835,249.913)">
            <g transform="matrix(0.907628,0,0,0.907628,18.2228,-26.2945)">
                <g transform="matrix(1.44173,0,0,1.44173,743.031,-408.717)">
                    <path d="M210.353,607.219C210.013,605.113 209.511,602.916 208.862,600.628C207.325,595.187 203.944,590.554 199.356,586.774C198.151,585.773 196.853,584.828 195.476,583.951C190.183,580.57 183.784,578.1 176.954,576.631C172.366,575.641 167.587,575.106 162.815,575.038C128.153,574.264 106.581,575.425 72.442,574.127C72.454,574.15 72.454,574.173 72.464,574.195C74.024,575.459 75.618,576.666 77.246,577.838C80.819,580.422 84.543,582.79 88.401,584.965C95.585,589.005 103.246,592.307 111.26,594.766C112.216,595.061 113.172,595.346 114.13,595.608C119.73,596.211 124.761,596.814 128.778,598.682C129.793,599.137 130.737,599.683 131.613,600.321C134.483,602.427 137.67,606.445 139.765,609.257C144.262,615.256 143.316,620.185 148.645,623.144C149.202,623.452 149.827,623.748 150.534,624.01C152.23,624.648 154.653,625.501 155.759,623.1C155.919,622.758 156.042,622.336 156.146,621.836C155.7,620.402 154.165,619.161 153.241,618.546C151.603,617.476 150.954,616.827 149.771,615.609C147.585,613.366 147.438,609.553 145.9,606.901C147.835,606.081 158.046,604.715 160.187,605.011C164.763,605.215 168.372,605.568 171.126,608.403C172.206,609.257 172.798,609.997 173.778,610.737C173.847,610.794 173.903,610.851 173.972,610.896C178.31,614.049 182.315,615.176 185.866,616.258C186.802,616.542 187.688,616.816 188.556,617.134C189.888,617.612 191.138,618.182 192.31,618.944C193.7,619.866 196.058,622.28 196.159,624.363C192.663,623.247 194.974,624.659 189.817,624.261C187.302,623.976 184.73,623.805 182.146,623.623C178.128,623.339 174.108,623.042 170.341,622.326C169.714,622.211 169.087,622.075 168.474,621.927C167.995,621.825 167.528,621.7 167.073,621.574C167.062,621.767 167.052,621.95 167.052,622.12C166.948,626.059 169.726,628.028 163.374,635.519C163.317,635.599 163.237,635.678 163.169,635.769C161.483,637.739 152.72,641.484 149.987,642.201C138.353,644.534 129.485,636.964 115.472,640.778C110.543,642.611 106.923,650.601 104.657,656.577C101.641,664.513 99.251,674.153 96.518,683.637C101.847,682.84 107.048,681.701 112.103,680.21C123.27,676.931 133.754,672.025 143.271,665.765C144.182,664.534 145.183,663.475 146.265,662.657C146.549,662.44 146.845,662.235 147.142,662.054C147.357,661.917 148.098,661.768 149.269,661.552C160.13,659.628 207.769,653.175 210.866,618.591C211.185,615.097 211.038,611.306 210.353,607.219ZM103.417,625.809C97.042,623.885 95.414,623.566 91.362,620.424C91.429,620.754 91.532,621.119 91.669,621.505C102.448,627.573 114.277,631.967 126.81,634.347C122.917,625.296 118.308,626.902 103.417,625.809ZM132.935,621.71C130.156,614.972 122.622,611.135 116.122,609.246C107.401,606.126 101.061,609.121 82.664,600.435C82.811,600.674 82.948,600.902 83.096,601.129C86.671,603.713 90.393,606.092 94.253,608.255C101.437,612.296 109.097,615.598 117.11,618.057C121.277,618.546 125.285,619.241 128.973,621.017C130.612,621.79 132.183,622.781 133.675,624.056C133.492,623.236 133.241,622.451 132.935,621.71Z" style="fill:url(#_Linear1);fill-rule:nonzero;"/>
                </g>
                <g transform="matrix(1.44173,0,0,1.44173,743.031,-408.717)">
                    <path d="M114.13,595.608C113.172,595.346 112.216,595.061 111.26,594.766C103.246,592.307 95.585,589.005 88.401,584.965C84.543,582.79 80.819,580.422 77.246,577.838C75.618,576.666 74.024,575.459 72.464,574.195C74.604,580.798 84.098,587.765 90.542,590.508C98.76,594.003 106.923,594.811 114.13,595.608Z" style="fill:rgb(144,212,209);fill-rule:nonzero;"/>
                </g>
                <g transform="matrix(1.44173,0,0,1.44173,743.031,-408.717)">
                    <path d="M94.253,608.255C90.393,606.092 86.671,603.713 83.096,601.129C93.102,616.952 105.671,616.713 117.11,618.057C109.097,615.598 101.437,612.296 94.253,608.255Z" style="fill:rgb(144,212,209);fill-rule:nonzero;"/>
                </g>
                <g transform="matrix(1.44173,0,0,1.44173,743.031,-408.717)">
                    <path d="M126.81,634.347C114.277,631.967 102.448,627.573 91.669,621.505C93.045,625.478 98.02,631.762 104.612,633.163C107.47,634.187 106.706,633.925 111.579,633.777C118.716,633.413 122.131,633.185 127.187,635.246C127.061,634.938 126.936,634.642 126.81,634.347Z" style="fill:rgb(144,212,209);fill-rule:nonzero;"/>
                </g>
                <g transform="matrix(1.44173,0,0,1.44173,743.031,-408.717)">
                    <path d="M143.271,665.765C143.19,665.866 143.112,665.969 143.032,666.083C129.188,680.176 111.853,690.773 92.442,696.476C93.934,692.344 95.266,688.008 96.518,683.637C101.847,682.84 107.048,681.701 112.103,680.21C123.27,676.931 133.754,672.025 143.271,665.765Z" style="fill:rgb(144,212,209);fill-rule:nonzero;"/>
                </g>
                <g transform="matrix(1.44173,0,0,1.44173,743.031,-408.717)">
                    <path d="M143.032,666.083C136.986,674.37 133.914,690.205 130.373,699.357C125.229,712.699 118.079,722.307 102.415,723.674C98.487,724.025 74.833,724.914 72.305,723.639C72.464,722.295 76.403,720.678 77.428,719.892C84.28,715.045 88.844,706.392 92.442,696.476C111.853,690.773 129.188,680.176 143.032,666.083Z" style="fill:rgb(20,160,196);fill-rule:nonzero;"/>
                </g>
            </g>
        </g>
    </g>
    <defs>
        <linearGradient id="_Linear1" x1="0" y1="0" x2="1" y2="0" gradientUnits="userSpaceOnUse" gradientTransform="matrix(138.584,0,0,138.584,72.5122,629.234)"><stop offset="0" style="stop-color:rgb(84,196,198);stop-opacity:1"/><stop offset="1" style="stop-color:rgb(18,186,213);stop-opacity:1"/></linearGradient>
    </defs>
</svg>
